# xmcd CD database file
#
# Track frame offsets:
#	150
#	14640
#	30005
#	50959
#	61476
#	87930
#	96662
#	116231
#	142574
#	154713
#	181116
#	199978
#
# Disc length: 2880 seconds
#
# Revision: 1
# Processed by: cddbd v1.5.2PL0 Copyright (c) Steve Scherf et al.
# Submitted via: CDex 1.70beta2
#
DISCID=a10b3e0c
DTITLE=Мельница - Дорога Сна
DYEAR=2003
DGENRE=Folk
TTITLE0=Дорога Сна
TTITLE1=Горец
TTITLE2=Ольга
TTITLE3=Лорд Грегори
TTITLE4=Змей
TTITLE5=Тарантелла 
TTITLE6=Зима
TTITLE7=Оборотень
TTITLE8=Рапунцель
TTITLE9=Воин вереска
TTITLE10=Мора
TTITLE11=На север
EXTD=YEAR: 2003
EXTT0=
EXTT1=
EXTT2=
EXTT3=
EXTT4=
EXTT5=
EXTT6=
EXTT7=
EXTT8=
EXTT9=
EXTT10=
EXTT11=
PLAYORDER=
